<?xml version="1.0" encoding="UTF-8"?>
<!DOCTYPE svg PUBLIC "-//W3C//DTD SVG 1.1//EN" "http://www.w3.org/Graphics/SVG/1.1/DTD/svg11.dtd">
<!-- Creator: CorelDRAW 2018 -->
<svg xmlns="http://www.w3.org/2000/svg" xml:space="preserve" width="40.034mm" height="13.5466mm" version="1.1" style="shape-rendering:geometricPrecision; text-rendering:geometricPrecision; image-rendering:optimizeQuality; fill-rule:evenodd; clip-rule:evenodd"
viewBox="0 0 123.27 41.71"
 xmlns:xlink="http://www.w3.org/1999/xlink">
 <defs>
  <style type="text/css">
   <![CDATA[
    .fil0 {fill:#EBECEC}
    .fil1 {fill:#EBECEC;fill-rule:nonzero}
   ]]>
  </style>
 </defs>
 <g id="Слой_x0020_1">
  <metadata id="CorelCorpID_0Corel-Layer"/>
  <path class="fil0" d="M-0 0l41.71 0 0 41.71 -41.71 0 0 -41.71zm9.97 24.44l-4.51 0c-0.1,8.03 14.76,7.9 14.76,0.23 0,-4.56 -3.55,-5.11 -7.17,-5.5 -1.64,-0.18 -3,-0.47 -2.89,-1.85 0.16,-2.16 5.06,-2.37 5.06,0.05l4.43 0c0.1,-7.87 -14.08,-7.87 -13.92,0 0.05,3.96 2.66,5.32 6.62,5.6 1.82,0.1 3.34,0.39 3.34,1.67 0,2.14 -5.71,2.11 -5.71,-0.21zm26.41 -12.67l-7.43 0 0 4.15 2.66 0 0 7.95c0,1.46 -0.91,2.19 -2.27,2.19 -1.36,0 -2.42,-0.76 -2.42,-2.19l0 -2.29 -4.41 0 0 2.37c0,3.99 3.08,6.28 6.83,6.28 3.75,0 7.04,-2.29 7.04,-6.28l0 -12.17z"/>
  <path class="fil1" d="M52.72 30.02l0 -4.67 3.36 0c8.73,0 8.73,-13.56 0,-13.58l-8.03 0 0 18.25 4.67 0zm3.34 -8.86l-3.34 0 0 -5.21c1.07,0 2.24,-0.03 3.34,0 2.71,0.03 2.55,5.21 0,5.21zm21.92 2.4c4.61,-3.13 3.31,-11.76 -3.86,-11.78l-8 0 0 18.25 4.67 0 0 -5.37 2.42 0 3.13 5.37 5.21 0 0 -0.68 -3.57 -5.79zm-3.86 -3.05l-3.34 0 0 -4.56c1.09,0 2.24,-0.03 3.34,0 2.66,0.03 2.53,4.56 0,4.56zm27.84 0.42c0,-12.62 -18.72,-12.62 -18.72,0 0,12.64 18.72,12.64 18.72,0zm-13.92 0c0,-6.57 9.15,-6.57 9.15,0 0,6.62 -9.15,6.62 -9.15,0zm26.28 -1.28l-7.14 -7.93 -1.72 0 0 18.3 4.77 0 0 -8.13 3.86 4.07 0.52 0 3.88 -4.07 0 8.13 4.77 0 0 -18.3 -1.67 0 -7.27 7.93z"/>
 </g>
</svg>
