<?xml version="1.0" encoding="UTF-8"?>
<!DOCTYPE svg PUBLIC "-//W3C//DTD SVG 1.1//EN" "http://www.w3.org/Graphics/SVG/1.1/DTD/svg11.dtd">
<!-- Creator: CorelDRAW 2018 -->
<svg xmlns="http://www.w3.org/2000/svg" xml:space="preserve" width="407.992mm" height="226.307mm" version="1.1" style="shape-rendering:geometricPrecision; text-rendering:geometricPrecision; image-rendering:optimizeQuality; fill-rule:evenodd; clip-rule:evenodd"
viewBox="0 0 9874.31 5477.13"
 xmlns:xlink="http://www.w3.org/1999/xlink">
 <defs>
  <style type="text/css">
   <![CDATA[
    .str0 {stroke:#2B2A29;stroke-width:4.84;stroke-miterlimit:22.9256}
    .fil0 {fill:#2B2A29}
   ]]>
  </style>
 </defs>
 <g id="Слой_x0020_1">
  <metadata id="CorelCorpID_0Corel-Layer"/>
  <polygon class="fil0 str0" points="2271.26,5.03 2643.15,683.08 3015.04,1361.12 2271.26,1361.12 1527.46,1361.12 1899.36,683.08 "/>
  <polygon class="fil0 str0" points="3794.62,5.03 4166.52,683.08 4538.41,1361.12 3794.62,1361.12 3050.83,1361.12 3422.73,683.08 "/>
  <polygon class="fil0 str0" points="4556.31,1361.12 4184.41,683.08 3812.52,5.03 4556.31,5.03 5300.1,5.03 4928.2,683.08 "/>
  <polygon class="fil0 str0" points="5318,5.03 5689.89,683.08 6061.79,1361.12 5318,1361.12 4574.21,1361.12 4946.1,683.08 "/>
  <polygon class="fil0 str0" points="6079.68,1361.12 5707.79,683.08 5335.89,5.03 6079.68,5.03 6823.48,5.03 6451.58,683.08 "/>
  <polygon class="fil0 str0" points="6841.38,5.03 7213.27,683.08 7585.17,1361.12 6841.38,1361.12 6097.58,1361.12 6469.48,683.08 "/>
  <polygon class="fil0 str0" points="7603.06,1361.12 7231.17,683.08 6859.27,5.03 7603.06,5.03 8346.85,5.03 7974.96,683.08 "/>
  <polygon class="fil0 str0" points="8364.74,5.03 8736.64,683.08 9108.53,1361.12 8364.74,1361.12 7620.95,1361.12 7992.85,683.08 "/>
  <polygon class="fil0 str0" points="9126.43,1361.12 8754.53,683.08 8382.64,5.03 9126.43,5.03 9870.22,5.03 9498.32,683.08 "/>
  <polygon class="fil0 str0" points="1509.57,1375.36 1881.46,2053.4 2253.36,2731.45 1509.57,2731.45 765.77,2731.45 1137.67,2053.4 "/>
  <polygon class="fil0 str0" points="2271.26,2731.45 1899.36,2053.4 1527.46,1375.36 2271.26,1375.36 3015.04,1375.36 2643.15,2053.4 "/>
  <polygon class="fil0 str0" points="3032.93,1375.36 3404.83,2053.4 3776.73,2731.45 3032.93,2731.45 2289.14,2731.45 2661.04,2053.4 "/>
  <polygon class="fil0 str0" points="3794.62,2731.45 3422.73,2053.4 3050.83,1375.36 3794.62,1375.36 4538.41,1375.36 4166.52,2053.4 "/>
  <polygon class="fil0 str0" points="4556.31,1375.36 4928.2,2053.4 5300.1,2731.45 4556.31,2731.45 3812.52,2731.45 4184.41,2053.4 "/>
  <polygon class="fil0 str0" points="5318,2731.45 4946.1,2053.4 4574.21,1375.36 5318,1375.36 6061.79,1375.36 5689.89,2053.4 "/>
  <polygon class="fil0 str0" points="6079.69,1375.36 6451.58,2053.4 6823.48,2731.45 6079.69,2731.45 5335.9,2731.45 5707.79,2053.4 "/>
  <polygon class="fil0 str0" points="6841.38,2731.45 6469.48,2053.4 6097.58,1375.36 6841.38,1375.36 7585.17,1375.36 7213.27,2053.4 "/>
  <polygon class="fil0 str0" points="7603.06,1375.36 7974.95,2053.4 8346.85,2731.45 7603.06,2731.45 6859.26,2731.45 7231.16,2053.4 "/>
  <polygon class="fil0 str0" points="8364.74,2731.45 7992.85,2053.4 7620.95,1375.36 8364.74,1375.36 9108.53,1375.36 8736.64,2053.4 "/>
  <polygon class="fil0 str0" points="9126.43,1375.36 9498.32,2053.4 9870.22,2731.45 9126.43,2731.45 8382.64,2731.45 8754.53,2053.4 "/>
  <polygon class="fil0 str0" points="747.88,2745.68 1119.78,3423.73 1491.67,4101.77 747.88,4101.77 4.09,4101.77 375.98,3423.73 "/>
  <polygon class="fil0 str0" points="1509.57,4101.77 1137.67,3423.73 765.77,2745.68 1509.57,2745.68 2253.36,2745.68 1881.46,3423.73 "/>
  <polygon class="fil0 str0" points="2271.25,2745.68 2643.14,3423.73 3015.04,4101.77 2271.25,4101.77 1527.46,4101.77 1899.35,3423.73 "/>
  <polygon class="fil0 str0" points="3032.93,4101.77 2661.04,3423.73 2289.14,2745.68 3032.93,2745.68 3776.73,2745.68 3404.83,3423.73 "/>
  <polygon class="fil0 str0" points="3794.62,2745.68 4166.52,3423.73 4538.41,4101.77 3794.62,4101.77 3050.83,4101.77 3422.73,3423.73 "/>
  <polygon class="fil0 str0" points="4556.31,4101.77 4184.41,3423.73 3812.52,2745.68 4556.31,2745.68 5300.1,2745.68 4928.2,3423.73 "/>
  <polygon class="fil0 str0" points="5318,2745.68 5689.9,3423.73 6061.79,4101.77 5318,4101.77 4574.21,4101.77 4946.1,3423.73 "/>
  <polygon class="fil0 str0" points="6079.69,4101.77 5707.79,3423.73 5335.9,2745.68 6079.69,2745.68 6823.48,2745.68 6451.58,3423.73 "/>
  <polygon class="fil0 str0" points="6841.37,2745.68 7213.26,3423.73 7585.16,4101.77 6841.37,4101.77 6097.58,4101.77 6469.47,3423.73 "/>
  <polygon class="fil0 str0" points="7603.06,4101.77 7231.16,3423.73 6859.26,2745.68 7603.06,2745.68 8346.85,2745.68 7974.95,3423.73 "/>
  <polygon class="fil0 str0" points="8364.74,2745.68 8736.64,3423.73 9108.53,4101.77 8364.74,4101.77 7620.95,4101.77 7992.85,3423.73 "/>
  <polygon class="fil0 str0" points="9126.43,4101.77 8754.53,3423.73 8382.64,2745.68 9126.43,2745.68 9870.22,2745.68 9498.32,3423.73 "/>
  <polygon class="fil0 str0" points="747.88,5472.1 375.98,4794.05 4.09,4116.01 747.88,4116.01 1491.67,4116.01 1119.78,4794.05 "/>
  <polygon class="fil0 str0" points="1509.56,4116.01 1881.45,4794.05 2253.35,5472.1 1509.56,5472.1 765.77,5472.1 1137.66,4794.05 "/>
  <polygon class="fil0 str0" points="2271.25,5472.1 1899.35,4794.05 1527.46,4116.01 2271.25,4116.01 3015.04,4116.01 2643.14,4794.05 "/>
  <polygon class="fil0 str0" points="3032.93,4116.01 3404.83,4794.05 3776.73,5472.1 3032.93,5472.1 2289.14,5472.1 2661.04,4794.05 "/>
  <polygon class="fil0 str0" points="3794.62,5472.1 3422.73,4794.05 3050.83,4116.01 3794.62,4116.01 4538.41,4116.01 4166.52,4794.05 "/>
  <polygon class="fil0 str0" points="5318,5472.1 4946.1,4794.05 4574.21,4116.01 5318,4116.01 6061.79,4116.01 5689.9,4794.05 "/>
  <polygon class="fil0 str0" points="6079.68,4116.01 6451.58,4794.05 6823.47,5472.1 6079.68,5472.1 5335.89,5472.1 5707.79,4794.05 "/>
  <polygon class="fil0 str0" points="6841.37,5472.1 6469.47,4794.05 6097.58,4116.01 6841.37,4116.01 7585.16,4116.01 7213.26,4794.05 "/>
  <polygon class="fil0 str0" points="7603.06,4116.01 7974.95,4794.05 8346.85,5472.1 7603.06,5472.1 6859.26,5472.1 7231.16,4794.05 "/>
  <polygon class="fil0 str0" points="8364.74,5472.1 7992.85,4794.05 7620.95,4116.01 8364.74,4116.01 9108.53,4116.01 8736.64,4794.05 "/>
 </g>
</svg>
