<?xml version="1.0" encoding="UTF-8" ?>
<!DOCTYPE svg PUBLIC "-//W3C//DTD SVG 1.1//EN" "http://www.w3.org/Graphics/SVG/1.1/DTD/svg11.dtd">
<svg width="100%" height="100" viewBox="0 0 1499 843" version="1.1" xmlns="http://www.w3.org/2000/svg">
<g id="#d5d5d5d5">
<path fill="#d5d5d5" opacity="0.84" d=" M 0.00 0.00 L 52.06 0.00 C 53.34 1.14 54.18 2.64 55.02 4.11 C 58.31 9.75 63.87 13.82 66.39 19.94 C 69.97 24.93 74.05 29.59 77.68 34.56 C 82.21 42.36 89.48 48.38 93.07 56.73 C 94.59 57.95 96.27 59.07 97.33 60.75 C 100.11 65.32 103.65 69.36 106.37 73.97 C 110.30 78.38 113.88 83.13 116.90 88.22 C 119.98 92.67 123.99 96.39 127.03 100.87 C 132.39 109.03 138.59 116.60 143.94 124.76 C 148.91 129.84 153.32 135.54 156.45 141.94 C 160.01 145.42 162.53 149.72 165.67 153.56 C 171.12 161.29 177.20 168.52 182.61 176.27 C 185.47 179.51 186.99 183.68 189.95 186.85 C 192.50 189.47 193.41 193.41 196.81 195.21 C 198.02 198.19 200.25 200.44 202.44 202.70 C 210.73 214.29 218.65 226.16 227.85 237.08 C 232.96 245.08 238.84 252.54 244.35 260.25 C 247.56 262.95 248.60 267.26 251.71 270.04 C 254.19 272.42 255.50 275.83 258.48 277.73 C 261.45 285.19 268.97 289.83 270.71 297.92 C 275.79 301.34 279.56 306.27 282.42 311.62 C 188.28 311.94 94.14 311.36 0.00 311.52 L 0.00 0.00 Z" />
</g>
<g id="#b1b1b1b2">
<path fill="#b1b1b1" opacity="0.70" d=" M 52.06 0.00 L 348.68 0.00 C 425.32 103.75 501.49 207.85 577.99 311.71 C 479.47 312.02 380.95 311.31 282.42 311.62 C 279.56 306.27 275.79 301.34 270.71 297.92 C 268.97 289.83 261.45 285.19 258.48 277.73 C 255.50 275.83 254.19 272.42 251.71 270.04 C 248.60 267.26 247.56 262.95 244.35 260.25 C 238.84 252.54 232.96 245.08 227.85 237.08 C 218.65 226.16 210.73 214.29 202.44 202.70 C 200.25 200.44 198.02 198.19 196.81 195.21 C 193.41 193.41 192.50 189.47 189.95 186.85 C 186.99 183.68 185.47 179.51 182.61 176.27 C 177.20 168.52 171.12 161.29 165.67 153.56 C 162.53 149.72 160.01 145.42 156.45 141.94 C 153.32 135.54 148.91 129.84 143.94 124.76 C 138.59 116.60 132.39 109.03 127.03 100.87 C 123.99 96.39 119.98 92.67 116.90 88.22 C 113.88 83.13 110.30 78.38 106.37 73.97 C 103.65 69.36 100.11 65.32 97.33 60.75 C 96.27 59.07 94.59 57.95 93.07 56.73 C 89.48 48.38 82.21 42.36 77.68 34.56 C 74.05 29.59 69.97 24.93 66.39 19.94 C 63.87 13.82 58.31 9.75 55.02 4.11 C 54.18 2.64 53.34 1.14 52.06 0.00 Z" />
</g>
<g id="#7f7f7f7f">
<path fill="#7f7f7f" opacity="0.50" d=" M 348.68 0.00 L 514.37 0.00 C 586.32 97.62 658.11 195.38 729.93 293.10 C 734.36 299.29 739.17 305.23 743.29 311.65 C 688.19 311.71 633.09 311.60 577.99 311.71 C 501.49 207.85 425.32 103.75 348.68 0.00 Z" />
</g>
<g id="#4949494a">
<path fill="#494949" opacity="0.29" d=" M 514.37 0.00 L 665.87 0.00 C 740.67 100.57 815.32 201.26 890.08 301.87 C 892.15 305.01 894.56 307.91 897.41 310.39 C 897.58 310.72 897.92 311.40 898.09 311.73 C 846.49 311.55 794.89 311.73 743.29 311.65 C 739.17 305.23 734.36 299.29 729.93 293.10 C 658.11 195.38 586.32 97.62 514.37 0.00 Z" />
</g>
<g id="#ffffffff">
<path fill="#ffffff" opacity="1.00" d=" M 0.00 311.52 C 94.14 311.36 188.28 311.94 282.42 311.62 C 380.95 311.31 479.47 312.02 577.99 311.71 C 633.09 311.60 688.19 311.71 743.29 311.65 C 794.89 311.73 846.49 311.55 898.09 311.73 C 899.39 314.62 901.54 316.99 903.37 319.54 C 912.44 332.22 922.14 344.46 930.84 357.40 C 936.71 364.93 942.10 372.79 947.83 380.41 C 997.78 447.52 1046.84 515.33 1096.49 582.68 C 1096.46 583.06 1096.40 583.82 1096.37 584.20 C 1095.61 584.77 1094.87 585.33 1094.14 585.91 C 1093.56 587.00 1093.04 588.13 1092.38 589.18 C 1080.89 605.08 1069.29 620.90 1058.00 636.94 C 1047.02 651.37 1036.74 666.31 1025.93 680.87 C 998.67 718.83 971.23 756.66 943.70 794.43 C 932.23 810.49 920.61 826.46 909.00 842.43 C 908.78 842.57 908.34 842.86 908.13 843.00 L 0.00 843.00 L 0.00 311.52 Z" />
</g>
</svg>
